<svg width="87" height="113" viewBox="0 0 87 113" fill="none" xmlns="http://www.w3.org/2000/svg">
<g clip-path="url(#clip0_26_10)">
<path d="M54.5678 11.8976L46.0135 9.41667L38.8047 38.5368L32.2964 12.2469L23.7419 14.7279L30.7737 43.1321L13.2592 24.1749L6.9969 30.953L26.2081 51.747L2.2836 44.8083L-0.00854492 54.0672L26.132 61.6486C25.8327 60.2514 25.6744 58.7956 25.6744 57.2997C25.6744 46.7116 33.6045 38.1283 43.3868 38.1283C53.1691 38.1283 61.0991 46.7116 61.0991 57.2997C61.0991 58.7859 60.9427 60.2328 60.6472 61.6218L84.4041 68.5117L86.6961 59.2528L60.4516 51.6413L84.3778 44.7021L82.0855 35.4431L55.8421 43.0542L73.3566 24.0971L67.0943 17.319L48.1496 37.8244L54.5678 11.8976Z" fill="#4B34AC"/>
<path d="M60.6222 61.7296C59.8887 65.0857 58.3404 68.1007 56.2158 70.5163L73.4266 89.1451L79.6889 82.367L60.6222 61.7296Z" fill="#4B34AC"/>
<path d="M56.0421 70.711C53.8919 73.0881 51.1746 74.8619 48.1274 75.776L54.3901 101.074L62.9444 98.5929L56.0421 70.711Z" fill="#4B34AC"/>
<path d="M47.8079 75.8686C46.3942 76.262 44.9123 76.471 43.3853 76.471C41.7492 76.471 40.165 76.2309 38.6609 75.7815L32.3926 101.103L40.9469 103.583L47.8079 75.8686Z" fill="#4B34AC"/>
<path d="M38.3585 75.6882C35.3578 74.7286 32.6889 72.9321 30.5826 70.5483L13.3294 89.2228L19.5917 96.0009L38.3585 75.6882Z" fill="#4B34AC"/>
<path d="M30.4404 70.3832C28.3703 67.9843 26.8623 65.0096 26.1446 61.7053L2.3101 68.6178L4.60223 77.8768L30.4404 70.3832Z" fill="#4B34AC"/>
</g>
<defs>
<clipPath id="clip0_26_10">
<rect width="87" height="113" fill="white"/>
</clipPath>
</defs>
</svg>
